<?xml version="1.0" standalone="no"?>
<!DOCTYPE svg PUBLIC "-//W3C//DTD SVG 20010904//EN"
 "http://www.w3.org/TR/2001/REC-SVG-20010904/DTD/svg10.dtd">
<svg version="1.0" xmlns="http://www.w3.org/2000/svg"
 width="1024.000000pt" height="1024.000000pt" viewBox="0 0 1024.000000 1024.000000"
 preserveAspectRatio="xMidYMid meet">
<metadata>
Created by potrace 1.11, written by Peter Selinger 2001-2013
</metadata>
<g transform="translate(0.000000,1024.000000) scale(0.100000,-0.100000)"
fill="#000000" stroke="none">
<path d="M4835 10234 c-411 -27 -824 -99 -1185 -208 -1217 -365 -2258 -1172
-2914 -2259 -394 -652 -631 -1366 -712 -2142 -25 -238 -25 -772 0 -1010 34
-328 102 -672 190 -965 365 -1217 1172 -2258 2259 -2914 652 -394 1366 -631
2142 -712 238 -25 772 -25 1010 0 1200 125 2274 634 3115 1476 677 677 1151
1527 1365 2447 95 409 129 718 129 1173 0 455 -34 764 -129 1173 -309 1331
-1160 2500 -2338 3211 -648 391 -1372 633 -2132 711 -143 15 -670 27 -800 19z
m883 -1518 c54 -49 86 -114 142 -288 27 -84 58 -165 67 -180 10 -14 190 -187
401 -383 210 -195 382 -363 382 -371 0 -9 -79 -325 -176 -703 -97 -377 -185
-721 -195 -763 -10 -43 -28 -98 -40 -123 -31 -67 -106 -144 -164 -171 l-50
-24 -718 0 c-685 0 -720 1 -755 19 -46 23 -67 46 -87 94 -8 20 -58 303 -111
629 -94 580 -96 596 -91 723 3 103 10 146 30 207 42 132 117 226 216 272 45
20 61 21 497 24 l451 3 -22 92 c-12 53 -41 130 -67 182 -25 50 -58 128 -74
175 -26 79 -28 97 -29 245 l0 160 33 67 c19 40 46 77 65 90 48 35 125 57 194
58 58 0 66 -3 101 -34z m1926 -2008 c-89 -376 -178 -754 -199 -840 l-37 -158
-350 0 c-328 0 -349 1 -344 18 3 9 91 382 196 827 105 446 193 816 195 823 3
9 83 12 353 12 l348 0 -162 -682z m-3834 -520 c0 -2 18 -106 40 -233 22 -126
40 -233 40 -237 0 -5 -466 -8 -1035 -8 -1157 0 -1073 -5 -1152 72 -75 74 -92
182 -44 277 24 46 84 100 132 117 26 10 274 13 1027 13 545 1 992 0 992 -1z
m1055 -1210 c-5 -14 -395 -1657 -395 -1664 0 -2 -158 -4 -351 -4 -329 0 -350
1 -345 18 10 34 276 1162 276 1172 0 7 -477 10 -1426 10 -1101 0 -1436 3
-1468 12 -64 20 -131 91 -151 161 -35 121 30 251 146 293 50 18 3720 20 3714
2z m2088 -2 c43 -17 93 -76 107 -123 9 -33 163 -965 191 -1163 13 -90 6 -253
-16 -335 -37 -142 -119 -256 -220 -305 l-50 -25 -452 -3 c-249 -1 -453 -5
-453 -7 0 -41 51 -196 94 -285 83 -174 101 -246 101 -415 -1 -169 -18 -228
-90 -294 -71 -65 -229 -97 -290 -57 -50 33 -103 131 -151 285 -25 80 -54 162
-64 182 -11 21 -175 181 -409 399 -263 245 -390 369 -387 379 3 9 82 320 177
691 221 867 222 869 243 909 30 56 108 132 161 157 l50 24 713 0 c576 0 719
-3 745 -14z m-3699 -1283 c-12 -54 -38 -161 -57 -238 l-34 -140 -663 -3 c-450
-1 -675 1 -702 9 -24 6 -60 29 -88 55 -104 97 -106 244 -6 343 75 73 37 70
847 71 l727 0 -24 -97z"/>
</g>
</svg>
